<?xml version="1.0" standalone="no"?>
<!DOCTYPE svg PUBLIC "-//W3C//DTD SVG 20010904//EN"
 "http://www.w3.org/TR/2001/REC-SVG-20010904/DTD/svg10.dtd">
<svg version="1.0" xmlns="http://www.w3.org/2000/svg"
 width="400.000000pt" height="400.000000pt" viewBox="0 0 400.000000 400.000000"
 preserveAspectRatio="xMidYMid meet">
<g transform="translate(0.000000,400.000000) scale(0.100000,-0.100000)"
fill="#4169E1" stroke="none">
<path d="M1941 3904 c-12 -16 -20 -39 -19 -65 0 -22 -2 -42 -5 -45 -3 -3 -36
-7 -74 -10 -76 -4 -259 -30 -313 -44 -19 -5 -46 -11 -60 -14 -158 -31 -487
-166 -602 -247 -14 -11 -29 -19 -32 -19 -4 0 -12 -4 -19 -10 -7 -5 -57 -43
-113 -84 -269 -199 -459 -444 -597 -766 -44 -104 -94 -312 -101 -425 l-5 -62
60 58 c226 222 651 222 890 2 l56 -52 34 36 c31 33 159 123 174 123 4 0 21 6
38 14 71 31 134 41 257 40 106 -1 137 -5 206 -27 76 -25 177 -82 217 -121 17
-17 18 -60 16 -806 -1 -787 -1 -789 21 -854 61 -186 232 -331 425 -363 302
-50 585 156 633 461 13 79 10 81 -98 77 -22 -1 -25 -6 -28 -42 -6 -94 -62
-201 -142 -273 -130 -118 -341 -134 -494 -39 -101 63 -179 184 -192 295 -4 32
-11 58 -15 58 -5 0 -9 324 -9 735 l0 734 23 21 c41 40 151 98 227 122 59 18
99 23 185 23 117 0 161 -6 240 -32 68 -22 174 -87 226 -138 l44 -43 60 55
c167 151 435 203 663 127 77 -26 169 -82 227 -139 l55 -53 -6 56 c-28 306
-147 599 -350 863 -128 166 -358 361 -566 479 -246 140 -573 244 -838 266 -47
3 -92 8 -100 10 -8 1 -25 3 -37 3 -20 1 -23 6 -23 45 0 61 -29 96 -80 96 -29
0 -43 -6 -59 -26z"/>
</g>
</svg>
